<?xml version="1.0" encoding="utf-8"?>
<!-- Generator: Adobe Illustrator 27.7.0, SVG Export Plug-In . SVG Version: 6.00 Build 0)  -->
<svg version="1.1" id="Layer_1" xmlns="http://www.w3.org/2000/svg" xmlns:xlink="http://www.w3.org/1999/xlink" x="0px" y="0px"
	 viewBox="0 0 2631.53 802.48" style="enable-background:new 0 0 2631.53 802.48;" xml:space="preserve">
<style type="text/css">
	.st0{fill:#FFFFFF;}
</style>
<g>
	<path class="st0" d="M2209.29,351.41h-306.79v86.99c0,11.12-1.3,21.98-3.69,32.46h310.47V351.41z"/>
	<path class="st0" d="M2254.58,114.98v145.56h-352.07v-43.81c0-39.67-16.12-75.66-42.14-101.74H2254.58z"/>
	<path class="st0" d="M2512.54,559.2h-667.13l56.04,125.77c0.4,0.76,0.77,1.54,1.12,2.32c2.4,5.38,3.53,11.09,3.58,16.76h606.39
		c40,0,72.42-32.43,72.42-72.42l0,0C2584.96,591.63,2552.54,559.2,2512.54,559.2z"/>
	<path class="st0" d="M1761.31,114.64c56.39,0,102.1,45.71,102.1,102.09V438.4c0,45.71-30.07,84.43-71.51,97.42l75.12,168.58
		h-170.05l-60.6-135.91c-7.62-17.08-24.53-28.05-43.22-28.05h-237.17V411.86h301.34c26.09,0,47.21-21.12,47.21-47.21v-45.76
		c0-25.05-20.31-45.36-45.36-45.36h-303.19v-17.03c0-57.38-26.81-108.58-68.53-141.85C1287.44,114.64,1763.17,114.64,1761.31,114.64
		z"/>
	<path class="st0" d="M1174.57,113.91c78.79,0,142.58,63.86,142.58,142.58v452.59H1163.2V536.79H830.95
		c24.29-26.01,38.64-60.76,38.64-98.39v-25.1h293.6v-93.77c0-24.9-20.18-45.08-45.08-45.08H869.59v-57.72
		c0-40.23-16.59-76.65-43.26-102.82C826.34,113.91,1176.5,115.84,1174.57,113.91z"/>
	<path class="st0" d="M725.45,114.64c56.38,0,102.09,45.71,102.09,102.09V438.4c0,45.71-30.07,84.43-71.51,97.42l75.14,168.64
		l0.06-0.06H661.1l-60.59-135.9c-7.61-17.07-24.55-28.06-43.23-28.06H354.36V411.85h267.09c26.07,0,47.21-21.14,47.21-47.21v-45.77
		c0-25.05-20.31-45.36-45.36-45.36H124.16c-43.87,0-79.44-35.57-79.44-79.44v0c0-43.87,35.57-79.44,79.44-79.44H725.45z"/>
</g>
</svg>
